<?xml version="1.0" encoding="iso-8859-1"?>
<!-- Generator: Adobe Illustrator 19.0.0, SVG Export Plug-In . SVG Version: 6.00 Build 0)  -->
<svg version="1.1" id="Capa_1" xmlns="http://www.w3.org/2000/svg" xmlns:xlink="http://www.w3.org/1999/xlink" x="0px" y="0px"
	 viewBox="0 0 490 490" style="enable-background:new 0 0 490 490;" xml:space="preserve">
<g>
	<g>
		<g>
			<path d="M245,0C109.7,0,0,109.7,0,245s109.7,245,245,245s245-109.7,245-245S380.3,0,245,0z M245,455.8
				c-116.3,0-210.8-94.5-210.8-210.8S128.7,34.2,245,34.2S455.8,128.7,455.8,245S361.3,455.8,245,455.8z"/>
			<path d="M245,53.7C139.6,53.7,53.7,139.6,53.7,245S139.6,436.3,245,436.3S436.3,350.4,436.3,245S350.4,53.7,245,53.7z
				 M278.4,169.2c3.5,4.3,2.3,10.5-1.9,14c-6.9,4-11.7,0.8-13.6-1.9l-6.2-7.8c-3.5-4.3-2.3-10.5,1.9-14s10.5-2.3,14,1.9L278.4,169.2
				z M281.2,253.6c-1.6,3.9-6.6,7.4-12.8,5.1c-7.4-3.1-13.6-9.3-16.7-17.1c-1.9-5.1,0.4-10.9,5.4-12.8c5.1-1.9,10.9,0.4,12.8,5.4
				c1.2,2.7,3.5,5.1,6.2,6.2C280.8,242.7,283.1,248.5,281.2,253.6z M136.1,150.1c4.7-0.4,9.7,1.2,13.6,3.9c4.3,3.1,5.4,9.3,1.9,14
				c-6.4,7.5-14,1.9-14,1.9c-5.4,0.4-10.1-3.9-10.5-9.3C126.4,155.2,130.7,150.5,136.1,150.1z M100.3,272.2c-4.3-3.1-5.4-9.3-1.9-14
				c3.1-4.3,9.3-5.4,14-1.9l12.8,9.3c4.3,3.1,5.4,9.3,1.9,14c-1.9,2.7-7.4,6.1-13.6,1.9L100.3,272.2z M134.2,362.4
				c-1.9,1.9-6.2,6-14,0.4l-5.1-5.1c-3.9-3.9-3.9-10.1,0-14s10.1-3.9,14,0l5.1,5.1C138.1,352.3,138.1,358.9,134.2,362.4z
				 M169.9,324.7c-6.6,5.3-12.1,1.6-14-0.4l-7.8-8.2c-3.9-3.9-3.9-10.1,0-14s10.1-3.9,14,0l7.8,8.2
				C173.8,314.6,173.8,321.2,169.9,324.7z M143.5,254.7c-17.5,0-31.5-14-31.5-31.5s14-31.5,31.5-31.5s31.5,14,31.5,31.5
				S161,254.7,143.5,254.7z M165.3,117.8c-1.9-5.1,0.4-10.9,5.4-12.8c6.2-2.7,12.4-4.3,19.1-5.4c5.4-0.8,10.5,3.1,11.3,8.2
				c0.8,5.4-3.1,10.5-8.2,11.3c-5.1,0.8-9.7,1.9-14.4,3.9C171.6,126.3,166.8,121.7,165.3,117.8z M223.2,401.7
				c-1.6,4.3-5.9,7.9-12.4,6.2l-17.9-5.8c-5.1-1.6-7.8-7.4-6.2-12.4c1.6-5.1,7.4-7.8,12.4-6.2l17.9,5.8
				C222.4,390.8,225.2,396.7,223.2,401.7z M236.4,291.7c-1.9,3.1-6.6,7.2-13.2,3.9c-5.8-3.5-11.3-7.8-15.9-12.8
				c-3.5-4.3-3.1-10.5,0.8-14c4.3-3.5,10.5-3.1,14,0.8c3.1,3.5,6.6,6.2,10.5,8.6C237.6,280.8,239.2,287,236.4,291.7z M236.4,206.5
				c-7.9,4.4-12.1,1.2-14-1.2c-4.3-5.1-7.8-10.1-10.5-15.9c-2.3-5.1-0.4-10.9,4.7-13.2s10.9-0.4,13.2,4.7c1.9,4.3,4.7,8.2,7.8,11.7
				C241.1,196.4,240.7,202.6,236.4,206.5z M241.1,95.7c-0.8-5.4,2.7-10.5,8.2-11.3c7.4-1.2,15.2,1.6,19.8,7.4
				c3.5,4.3,3.1,10.5-1.2,14c-6.7,4.6-12.1,1.2-14-1.2c-0.4-0.4-1.2-0.8-1.9-0.8C246.9,104.6,241.9,101.1,241.1,95.7z M278.4,382.7
				c-17.9,0-32.3-14.4-32.3-32.3s14.4-32.3,32.3-32.3s32.3,14.4,32.3,32.3C310.7,367.9,296.3,382.7,278.4,382.7z M325.1,300.2
				c-4.8,1.8-8.9-1.6-10.9-4.3c-3.9-1.6-6.6-5.4-6.2-9.7c0.4-5.4,4.7-9.7,10.5-9.3c6.6,0.4,12.4,5.1,14,11.7
				C333.7,293.6,330.6,299.1,325.1,300.2z M306.1,161.8c0-20.2,16.7-36.9,36.9-36.9c20.2,0,36.9,16.7,36.9,36.9
				s-16.7,36.9-36.9,36.9C322.4,198.7,306.1,182.4,306.1,161.8z M390.1,309.2l-5.1,8.2c-6.3,7.3-12.1,4.3-13.6,3.1
				c-4.7-2.7-6.2-8.9-3.1-13.6l5.1-8.2c2.7-4.7,8.9-6.2,13.6-3.1C391.6,298.3,393.2,304.5,390.1,309.2z M382.3,256.3
				c-2.7-0.8-5.8-0.8-8.9-0.8c-5.4,0.4-10.1-3.5-10.5-8.9s3.5-10.1,8.9-10.5c5.1-0.4,10.1,0,15.2,1.2c5.4,1.2,8.6,6.6,7.4,12.1
				C393.2,253.6,388.3,257.8,382.3,256.3z"/>
		</g>
	</g>
</g>
<g>
</g>
<g>
</g>
<g>
</g>
<g>
</g>
<g>
</g>
<g>
</g>
<g>
</g>
<g>
</g>
<g>
</g>
<g>
</g>
<g>
</g>
<g>
</g>
<g>
</g>
<g>
</g>
<g>
</g>
</svg>
