<?xml version="1.0" encoding="iso-8859-1"?>
<!-- Generator: Adobe Illustrator 18.0.0, SVG Export Plug-In . SVG Version: 6.00 Build 0)  -->
<!DOCTYPE svg PUBLIC "-//W3C//DTD SVG 1.1//EN" "http://www.w3.org/Graphics/SVG/1.1/DTD/svg11.dtd">
<svg version="1.1" id="Capa_1" xmlns="http://www.w3.org/2000/svg" xmlns:xlink="http://www.w3.org/1999/xlink" x="0px" y="0px"
	 viewBox="0 0 60.009 60.009" style="enable-background:new 0 0 60.009 60.009;" xml:space="preserve">
<g>
	<path d="M30.005,5.004c-13.785,0-25,11.215-25,25s11.215,25,25,25s25-11.215,25-25S43.79,5.004,30.005,5.004z M30.005,53.004
		c-12.682,0-23-10.317-23-23s10.318-23,23-23s23,10.317,23,23S42.687,53.004,30.005,53.004z"/>
	<path d="M22.005,22.004c3.309,0,6-2.691,6-6s-2.691-6-6-6s-6,2.691-6,6S18.696,22.004,22.005,22.004z M22.005,12.004
		c2.206,0,4,1.794,4,4s-1.794,4-4,4s-4-1.794-4-4S19.799,12.004,22.005,12.004z"/>
	<circle cx="21.005" cy="14.004" r="1"/>
	<circle cx="21.005" cy="18.004" r="1"/>
	<circle cx="24.005" cy="16.004" r="1"/>
	<path d="M21.005,33.004c0-3.309-2.691-6-6-6s-6,2.691-6,6s2.691,6,6,6S21.005,36.313,21.005,33.004z M15.005,37.004
		c-2.206,0-4-1.794-4-4s1.794-4,4-4s4,1.794,4,4S17.21,37.004,15.005,37.004z"/>
	<circle cx="14.005" cy="31.004" r="1"/>
	<circle cx="14.005" cy="35.004" r="1"/>
	<circle cx="17.005" cy="33.004" r="1"/>
	<path d="M40.005,27.004c3.309,0,6-2.691,6-6s-2.691-6-6-6s-6,2.691-6,6S36.696,27.004,40.005,27.004z M40.005,17.004
		c2.206,0,4,1.794,4,4s-1.794,4-4,4s-4-1.794-4-4S37.799,17.004,40.005,17.004z"/>
	<circle cx="39.005" cy="19.004" r="1"/>
	<circle cx="39.005" cy="23.004" r="1"/>
	<circle cx="42.005" cy="21.004" r="1"/>
	<path d="M24.59,39.512c-3.029,1.331-4.409,4.878-3.078,7.907c0.987,2.245,3.192,3.585,5.501,3.585c0.805,0,1.624-0.163,2.406-0.508
		c3.029-1.331,4.409-4.878,3.078-7.907C31.166,39.562,27.618,38.181,24.59,39.512z M28.614,48.666
		c-2.019,0.888-4.384-0.031-5.271-2.052c-0.888-2.02,0.033-4.385,2.052-5.272c0.522-0.229,1.067-0.338,1.604-0.338
		c1.539,0,3.009,0.894,3.667,2.39C31.554,45.413,30.633,47.779,28.614,48.666z"/>
	<circle cx="25.284" cy="43.576" r="1"/>
	<circle cx="26.894" cy="47.237" r="1"/>
	<circle cx="28.835" cy="44.199" r="1"/>
	<path d="M43.124,32.11c-1.575-0.302-3.172,0.033-4.496,0.935c-1.325,0.902-2.219,2.266-2.518,3.841
		c-0.299,1.574,0.033,3.171,0.935,4.495c0.902,1.325,2.266,2.22,3.84,2.519c0.377,0.072,0.756,0.107,1.132,0.107
		c1.192,0,2.357-0.356,3.364-1.043c1.325-0.901,2.219-2.265,2.518-3.84c0.299-1.574-0.033-3.171-0.935-4.495
		C46.062,33.303,44.698,32.408,43.124,32.11z M45.934,38.75c-0.199,1.05-0.795,1.959-1.678,2.56l0,0.001
		c-0.884,0.601-1.949,0.821-2.997,0.623c-1.05-0.199-1.959-0.796-2.56-1.679c-0.602-0.884-0.823-1.947-0.624-2.997
		s0.795-1.959,1.679-2.561c0.671-0.457,1.448-0.694,2.243-0.694c0.25,0,0.503,0.023,0.754,0.071c1.05,0.199,1.959,0.796,2.56,1.679
		C45.912,36.637,46.133,37.7,45.934,38.75z"/>
	<circle cx="43.095" cy="36.052" r="1"/>
	<circle cx="39.789" cy="38.303" r="1"/>
	<circle cx="43.13" cy="39.657" r="1"/>
	<path d="M30.499,34.46c1.458-0.666,2.569-1.859,3.128-3.361c0.56-1.502,0.501-3.132-0.165-4.589
		c-0.666-1.458-1.859-2.569-3.361-3.129c-1.503-0.562-3.132-0.503-4.589,0.164c-1.458,0.666-2.569,1.859-3.129,3.361
		s-0.501,3.132,0.165,4.589c0.666,1.458,1.859,2.569,3.361,3.129c0.683,0.255,1.392,0.382,2.1,0.382
		C28.858,35.006,29.704,34.823,30.499,34.46z M24.367,30.664c-0.444-0.972-0.483-2.058-0.109-3.059
		c0.374-1.002,1.114-1.798,2.086-2.241c0.53-0.242,1.094-0.364,1.66-0.364c0.472,0,0.944,0.085,1.399,0.254
		c1.001,0.374,1.797,1.114,2.241,2.087c0.444,0.972,0.483,2.058,0.109,3.059c-0.373,1.002-1.114,1.798-2.086,2.241
		c-0.972,0.444-2.058,0.482-3.059,0.11C25.607,32.377,24.811,31.637,24.367,30.664z"/>
	<circle cx="27.768" cy="26.779" r="1"/>
	<circle cx="26.37" cy="30.527" r="1"/>
	<circle cx="29.88" cy="29.702" r="1"/>
	<path d="M30.005,18.004c2.757,0,5-2.243,5-5c0-0.553-0.448-1-1-1s-1,0.447-1,1c0,1.654-1.346,3-3,3c-0.552,0-1,0.447-1,1
		S29.452,18.004,30.005,18.004z"/>
	<path d="M17.745,25.74c0.522,0,1.053-0.082,1.576-0.256c0.524-0.175,0.807-0.741,0.633-1.265c-0.174-0.524-0.739-0.805-1.265-0.634
		c-1.568,0.523-3.272-0.328-3.795-1.897c-0.175-0.523-0.74-0.807-1.265-0.632c-0.524,0.174-0.807,0.74-0.632,1.265
		C13.694,24.413,15.65,25.74,17.745,25.74z"/>
	<path d="M39.688,44.849c-0.761,0.253-1.575,0.196-2.291-0.162c-0.716-0.357-1.25-0.975-1.504-1.735
		c-0.174-0.523-0.739-0.808-1.265-0.632c-0.524,0.174-0.807,0.74-0.632,1.265c0.698,2.093,2.653,3.419,4.747,3.419
		c0.523,0,1.055-0.083,1.578-0.258c0.524-0.174,0.807-0.74,0.632-1.265C40.778,44.957,40.213,44.673,39.688,44.849z"/>
	<path d="M43.688,29.006c-0.27,0.482-0.097,1.092,0.385,1.361c0.756,0.423,1.59,0.639,2.434,0.639c0.457,0,0.916-0.063,1.368-0.191
		c1.284-0.363,2.351-1.206,3.003-2.372c0.27-0.482,0.097-1.092-0.385-1.361c-0.483-0.271-1.092-0.097-1.361,0.385
		c-0.391,0.7-1.031,1.206-1.802,1.425c-0.77,0.218-1.58,0.123-2.281-0.27C44.566,28.352,43.958,28.525,43.688,29.006z"/>
	<path d="M28.073,38.367c0.756,0.423,1.59,0.639,2.434,0.639c0.457,0,0.916-0.063,1.368-0.191c1.284-0.363,2.351-1.206,3.003-2.372
		c0.27-0.482,0.097-1.092-0.385-1.361c-0.483-0.269-1.092-0.097-1.361,0.385c-0.391,0.7-1.031,1.206-1.802,1.425
		c-0.769,0.218-1.58,0.122-2.281-0.27c-0.483-0.27-1.091-0.097-1.361,0.385C27.419,37.489,27.591,38.098,28.073,38.367z"/>
	<path d="M22.756,34.795c-0.207-0.513-0.79-0.759-1.302-0.552c-0.512,0.207-0.759,0.79-0.551,1.302
		c0.621,1.533-0.122,3.286-1.655,3.907c-0.512,0.207-0.759,0.79-0.551,1.302c0.157,0.39,0.532,0.625,0.927,0.625
		c0.125,0,0.252-0.023,0.375-0.073C22.554,40.271,23.791,37.35,22.756,34.795z"/>
	<path d="M40.185,29.33c0.543-0.1,0.903-0.621,0.803-1.164c-0.099-0.542-0.618-0.904-1.164-0.803
		c-1.314,0.241-2.456,0.979-3.213,2.079c-0.757,1.099-1.042,2.428-0.8,3.742c0.088,0.482,0.509,0.819,0.982,0.819
		c0.06,0,0.121-0.005,0.182-0.017c0.543-0.1,0.903-0.621,0.803-1.164c-0.145-0.789,0.025-1.587,0.48-2.246
		C38.712,29.918,39.396,29.476,40.185,29.33z"/>
	<path d="M59.544,28.339c0.917-2.309,0.456-4.897-1.205-6.755c-0.774-0.866-1.184-1.979-1.155-3.132
		c0.063-2.478-1.265-4.752-3.465-5.936c-1.029-0.554-1.802-1.462-2.175-2.558c-0.798-2.346-2.83-4.032-5.304-4.4
		c-1.162-0.173-2.205-0.767-2.937-1.673c-1.56-1.932-4.048-2.833-6.499-2.339c-1.155,0.231-2.341,0.023-3.344-0.582l0-0.001
		c-2.132-1.285-4.781-1.286-6.914,0.001c-1.002,0.605-2.188,0.813-3.344,0.582c-2.448-0.492-4.938,0.406-6.499,2.339
		c-0.731,0.906-1.774,1.5-2.937,1.673c-2.473,0.368-4.505,2.055-5.303,4.4c-0.373,1.096-1.146,2.004-2.175,2.558
		c-2.2,1.184-3.528,3.458-3.465,5.936c0.029,1.153-0.381,2.266-1.155,3.132c-1.66,1.857-2.122,4.446-1.205,6.755
		c0.426,1.074,0.426,2.256,0,3.33c-0.917,2.309-0.456,4.897,1.205,6.755c0.774,0.866,1.184,1.979,1.155,3.132
		c-0.063,2.478,1.265,4.752,3.465,5.936c1.029,0.554,1.802,1.462,2.175,2.558c0.798,2.346,2.83,4.032,5.304,4.4
		c1.162,0.173,2.205,0.767,2.937,1.673c1.56,1.932,4.049,2.83,6.499,2.339c1.155-0.23,2.341-0.022,3.344,0.583
		c1.066,0.643,2.261,0.965,3.457,0.965s2.391-0.322,3.457-0.966c1.002-0.605,2.188-0.813,3.344-0.582
		c2.448,0.495,4.938-0.407,6.499-2.339c0.731-0.906,1.774-1.5,2.937-1.673c2.473-0.368,4.505-2.055,5.303-4.4
		c0.373-1.096,1.146-2.004,2.175-2.558c2.2-1.184,3.528-3.458,3.465-5.936c-0.029-1.153,0.381-2.266,1.155-3.132
		c1.66-1.857,2.122-4.446,1.205-6.755C59.118,30.595,59.118,29.413,59.544,28.339z M57.686,32.407
		c0.635,1.6,0.314,3.396-0.837,4.685c-1.114,1.246-1.705,2.85-1.663,4.515c0.043,1.719-0.881,3.299-2.414,4.123
		c-1.476,0.794-2.584,2.1-3.121,3.675c-0.556,1.634-1.975,2.809-3.704,3.066c-1.66,0.247-3.151,1.098-4.198,2.396
		c-1.091,1.349-2.834,1.972-4.551,1.634c-1.646-0.331-3.339-0.033-4.769,0.831c-1.495,0.902-3.352,0.901-4.846,0.001
		c-1.05-0.635-2.241-0.963-3.451-0.963c-0.439,0-0.881,0.043-1.319,0.131c-1.72,0.339-3.46-0.285-4.551-1.634
		c-1.048-1.298-2.539-2.148-4.198-2.396c-1.729-0.258-3.149-1.433-3.705-3.066c-0.537-1.575-1.645-2.881-3.121-3.675
		c-1.532-0.824-2.457-2.404-2.414-4.123c0.042-1.665-0.549-3.269-1.663-4.515c-1.152-1.289-1.473-3.085-0.837-4.685
		c0.616-1.55,0.616-3.257,0-4.807c-0.635-1.6-0.314-3.396,0.837-4.685c1.114-1.246,1.705-2.85,1.663-4.515
		c-0.043-1.719,0.881-3.299,2.414-4.123c1.476-0.794,2.584-2.1,3.121-3.675c0.556-1.634,1.975-2.809,3.704-3.066
		c1.66-0.247,3.151-1.098,4.198-2.396c1.091-1.35,2.833-1.977,4.551-1.634c1.646,0.329,3.339,0.033,4.769-0.831
		c1.495-0.902,3.352-0.902,4.847,0c1.431,0.864,3.125,1.163,4.769,0.831c1.72-0.342,3.46,0.284,4.551,1.634
		c1.048,1.298,2.539,2.148,4.198,2.396c1.729,0.258,3.149,1.433,3.705,3.066c0.537,1.575,1.645,2.881,3.121,3.675
		c1.532,0.824,2.457,2.404,2.414,4.123c-0.042,1.665,0.549,3.269,1.663,4.515c1.152,1.289,1.473,3.085,0.837,4.685
		C57.07,29.151,57.07,30.858,57.686,32.407z"/>
</g>
<g>
</g>
<g>
</g>
<g>
</g>
<g>
</g>
<g>
</g>
<g>
</g>
<g>
</g>
<g>
</g>
<g>
</g>
<g>
</g>
<g>
</g>
<g>
</g>
<g>
</g>
<g>
</g>
<g>
</g>
</svg>
